<svg width="29" height="30" viewBox="0 0 29 30" fill="none" xmlns="http://www.w3.org/2000/svg">
<path d="M29 15C29 23.0081 22.5081 29.5 14.5 29.5C6.49187 29.5 0 23.0081 0 15C0 6.99187 6.49187 0.5 14.5 0.5C22.5081 0.5 29 6.99187 29 15ZM1.45835 15C1.45835 22.2027 7.2973 28.0416 14.5 28.0416C21.7027 28.0416 27.5416 22.2027 27.5416 15C27.5416 7.7973 21.7027 1.95835 14.5 1.95835C7.2973 1.95835 1.45835 7.7973 1.45835 15Z" fill="#295B3E"/>
<path d="M25.873 13.6663C25.7773 13.5604 25.6426 13.4998 25.5 13.4998C23.1929 13.4998 17.7394 15.0488 15.4986 19.589L15.4975 15.4519C17.9727 15.2104 19.9774 13.2193 20.1504 10.6912C20.3662 7.5267 20.7227 6.56723 20.916 6.2767C21.0137 6.13021 21.0273 5.94271 20.9512 5.78402C20.875 5.62484 20.7207 5.51791 20.5449 5.5018C20.4689 5.49612 19.2427 5.39541 17.9117 5.74771L15.3174 3.61361C15.1309 3.4598 14.8594 3.46273 14.6748 3.61996L12.168 5.76901C10.8063 5.39053 9.53259 5.49508 9.45507 5.5018C9.27929 5.51791 9.125 5.62484 9.04882 5.78402C8.97265 5.94271 8.98632 6.13021 9.08398 6.2767C9.27734 6.56723 9.63378 7.5267 9.84961 10.6912C10.0224 13.2154 12.0212 15.2042 14.4975 15.4508L14.4986 19.5833C12.256 15.0475 6.80615 13.4998 4.5 13.4998C4.35742 13.4998 4.22265 13.5604 4.12695 13.6663C4.03222 13.7723 3.9873 13.9139 4.00293 14.055C5.00195 23.0443 11.3838 25.4788 14.9971 25.4998H15H15.0029C18.6162 25.4788 24.998 23.0443 25.9971 14.055C26.0127 13.9139 25.9678 13.7723 25.873 13.6663ZM19.1523 10.6229C19.0155 12.6265 17.4518 14.2124 15.4972 14.4513L15.4961 10.0192C15.4963 10.0124 15.5 10.0067 15.5 9.99984C15.5 8.97641 15.8193 8.16439 16.4502 7.58725C17.4053 6.71225 18.875 6.52035 19.7432 6.4891C19.542 7.1473 19.3076 8.35092 19.1523 10.6229ZM10.8477 10.6229C10.6924 8.35092 10.458 7.1473 10.2568 6.4891C11.125 6.52035 12.5947 6.71225 13.5498 7.58725C14.1777 8.16165 14.4958 8.96945 14.4988 9.98611C14.4987 9.99093 14.4961 9.99496 14.4961 9.99984L14.4972 14.4514C12.5485 14.2129 10.9845 12.6267 10.8477 10.6229Z" fill="#295B3E"/>
</svg>
